<?xml version="1.0" encoding="UTF-8" standalone="no"?>
<svg
   xmlns:dc="http://purl.org/dc/elements/1.1/"
   xmlns:cc="http://creativecommons.org/ns#"
   xmlns:rdf="http://www.w3.org/1999/02/22-rdf-syntax-ns#"
   xmlns:svg="http://www.w3.org/2000/svg"
   xmlns="http://www.w3.org/2000/svg"
   version="1.1"
   x="0px"
   y="0px"
   width="53.103416"
   height="83.502357"
   viewBox="-0.3 -0.7 53.103416 83.502357"
   overflow="visible"
   enable-background="new -0.3 -0.7 53 84"
   xml:space="preserve"
   id="svg943"><metadata
   id="metadata947"><rdf:RDF><cc:Work
       rdf:about=""><dc:format>image/svg+xml</dc:format><dc:type
         rdf:resource="http://purl.org/dc/dcmitype/StillImage" /><dc:title></dc:title></cc:Work></rdf:RDF></metadata>
<defs
   id="defs939">
</defs>

<path
   id="polygon995"
   style="fill:#000000;stroke:#000000;stroke-width:1.00157;stroke-miterlimit:4;stroke-dasharray:none;fill-opacity:1"
   d="M 22.188593,82.136657 C 16.098607,81.71611 10.416107,78.278737 7.084604,73.180525 1.645112,65.043186 0.48028587,54.953179 0.23984707,45.393022 0.09914447,34.408838 0.09460667,22.900034 4.884468,12.756447 7.641174,6.7472579 12.932596,1.6121499 19.58727,0.38667829 c 4.51274,-0.789026 9.211037,-0.7990741 13.71167,0.080548 6.631787,1.36349061 11.796028,6.60996061 14.490529,12.64149271 4.719258,10.319709 4.623197,21.95131 4.456887,33.06687 -0.300938,9.428369 -1.564464,19.378107 -7.049658,27.326939 -3.415333,5.050291 -9.18089,8.344066 -15.271395,8.666625 -2.570988,0.181272 -5.16777,0.182017 -7.73671,-0.0325 z" /></svg>
